# MagicaVoxel @ Ephtracy

# material
mtllib player.mtl
usemtl palette

# normals
vn -1 0 0
vn 1 0 0
vn 0 0 1
vn 0 0 -1
vn 0 -1 0
vn 0 1 0

# texcoords
vt 0.00195313 0.5
vt 0.373047 0.5
vt 0.775391 0.5
vt 0.904297 0.5
vt 0.912109 0.5
vt 0.958984 0.5
vt 0.994141 0.5

# verts
v -9 10 0.5
v -9 10 -0.5
v -9 11 0.5
v -9 11 -0.5
v -3 14 0.5
v -3 14 -0.5
v -3 16 0.5
v -3 16 -0.5
v -2 0 1.5
v -2 0 -0.5
v -2 1 1.5
v -2 1 0.5
v -2 3 0.5
v -2 3 -0.5
v -2 4 1.5
v -2 4 0.5
v -2 4 -0.5
v -2 4 -1.5
v -2 7 1.5
v -2 7 -1.5
v -2 10 0.5
v -2 10 -0.5
v -2 11 0.5
v -2 11 -0.5
v -2 12 1.5
v -2 12 -1.5
v -2 13 2.5
v -2 13 -2.5
v -2 14 2.5
v -2 14 1.5
v -2 14 0.5
v -2 14 -0.5
v -2 14 -1.5
v -2 14 -2.5
v -2 16 2.5
v -2 16 1.5
v -2 16 0.5
v -2 16 -0.5
v -2 16 -1.5
v -2 17 2.5
v -2 17 1.5
v -2 19 2.5
v -2 19 -2.5
v -1 12 1.5
v -1 12 -1.5
v -1 13 1.5
v -1 13 -1.5
v 1 4 1.5
v 1 4 -1.5
v 1 6 1.5
v 1 6 -1.5
v 2 0 1.5
v 2 0 -0.5
v 2 1 1.5
v 2 1 0.5
v 2 3 0.5
v 2 3 -0.5
v 2 4 0.5
v 2 4 -0.5
v -1 0 1.5
v -1 0 -0.5
v -1 1 1.5
v -1 1 0.5
v -1 3 0.5
v -1 3 -0.5
v -1 4 0.5
v -1 4 -0.5
v 0 4 1.5
v 0 4 -1.5
v 0 6 1.5
v 0 6 -1.5
v 2 12 1.5
v 2 12 -1.5
v 2 13 1.5
v 2 13 -1.5
v 3 0 1.5
v 3 0 -0.5
v 3 1 1.5
v 3 1 0.5
v 3 3 0.5
v 3 3 -0.5
v 3 4 1.5
v 3 4 0.5
v 3 4 -0.5
v 3 4 -1.5
v 3 7 1.5
v 3 7 -1.5
v 3 10 0.5
v 3 10 -0.5
v 3 11 0.5
v 3 11 -0.5
v 3 12 1.5
v 3 12 -1.5
v 3 13 2.5
v 3 13 -2.5
v 3 14 2.5
v 3 14 1.5
v 3 14 0.5
v 3 14 -0.5
v 3 14 -2.5
v 3 16 2.5
v 3 16 1.5
v 3 16 0.5
v 3 16 -0.5
v 3 17 2.5
v 3 17 1.5
v 3 19 2.5
v 3 19 -2.5
v 4 14 0.5
v 4 14 -0.5
v 4 16 0.5
v 4 16 -0.5
v 10 10 0.5
v 10 10 -0.5
v 10 11 0.5
v 10 11 -0.5
v -2 13 2.5
v -2 14 2.5
v -2 16 2.5
v -2 17 2.5
v -2 19 2.5
v -1 14 2.5
v -1 16 2.5
v 0 13 2.5
v 0 14 2.5
v 0 16 2.5
v 1 13 2.5
v 1 14 2.5
v 1 16 2.5
v 2 14 2.5
v 2 16 2.5
v 3 13 2.5
v 3 14 2.5
v 3 16 2.5
v 3 17 2.5
v 3 19 2.5
v -2 0 1.5
v -2 1 1.5
v -2 4 1.5
v -2 7 1.5
v -2 12 1.5
v -1 0 1.5
v -1 1 1.5
v -1 12 1.5
v -1 13 1.5
v 0 4 1.5
v 0 6 1.5
v 0 13 1.5
v 1 4 1.5
v 1 6 1.5
v 1 13 1.5
v 2 0 1.5
v 2 1 1.5
v 2 12 1.5
v 2 13 1.5
v 3 0 1.5
v 3 1 1.5
v 3 4 1.5
v 3 7 1.5
v 3 12 1.5
v -9 10 0.5
v -9 11 0.5
v -3 10 0.5
v -3 11 0.5
v -3 14 0.5
v -3 16 0.5
v -2 1 0.5
v -2 3 0.5
v -2 4 0.5
v -2 10 0.5
v -2 11 0.5
v -2 14 0.5
v -2 16 0.5
v -1 1 0.5
v -1 3 0.5
v -1 4 0.5
v 2 1 0.5
v 2 3 0.5
v 2 4 0.5
v 3 1 0.5
v 3 3 0.5
v 3 4 0.5
v 3 10 0.5
v 3 11 0.5
v 3 14 0.5
v 3 16 0.5
v 4 10 0.5
v 4 11 0.5
v 4 14 0.5
v 4 16 0.5
v 10 10 0.5
v 10 11 0.5
v -9 10 -0.5
v -9 11 -0.5
v -3 10 -0.5
v -3 11 -0.5
v -3 14 -0.5
v -3 16 -0.5
v -2 0 -0.5
v -2 3 -0.5
v -2 4 -0.5
v -2 10 -0.5
v -2 11 -0.5
v -2 14 -0.5
v -2 16 -0.5
v -1 0 -0.5
v -1 3 -0.5
v -1 4 -0.5
v 2 0 -0.5
v 2 3 -0.5
v 2 4 -0.5
v 3 0 -0.5
v 3 3 -0.5
v 3 4 -0.5
v 3 10 -0.5
v 3 11 -0.5
v 3 14 -0.5
v 3 16 -0.5
v 4 10 -0.5
v 4 11 -0.5
v 4 14 -0.5
v 4 16 -0.5
v 10 10 -0.5
v 10 11 -0.5
v -2 4 -1.5
v -2 7 -1.5
v -2 12 -1.5
v -1 12 -1.5
v -1 13 -1.5
v 0 4 -1.5
v 0 6 -1.5
v 1 4 -1.5
v 1 6 -1.5
v 2 12 -1.5
v 2 13 -1.5
v 3 4 -1.5
v 3 7 -1.5
v 3 12 -1.5
v -2 13 -2.5
v -2 14 -2.5
v -2 19 -2.5
v 3 13 -2.5
v 3 14 -2.5
v 3 19 -2.5
v -2 0 1.5
v -1 0 1.5
v 2 0 1.5
v 3 0 1.5
v -2 0 -0.5
v -1 0 -0.5
v 2 0 -0.5
v 3 0 -0.5
v -2 4 1.5
v 0 4 1.5
v 1 4 1.5
v 3 4 1.5
v -2 4 0.5
v -1 4 0.5
v 2 4 0.5
v 3 4 0.5
v -2 4 -0.5
v -1 4 -0.5
v 2 4 -0.5
v 3 4 -0.5
v -2 4 -1.5
v 0 4 -1.5
v 1 4 -1.5
v 3 4 -1.5
v 0 6 1.5
v 1 6 1.5
v 0 6 -1.5
v 1 6 -1.5
v -9 10 0.5
v -3 10 0.5
v -2 10 0.5
v 3 10 0.5
v 4 10 0.5
v 10 10 0.5
v -9 10 -0.5
v -3 10 -0.5
v -2 10 -0.5
v 3 10 -0.5
v 4 10 -0.5
v 10 10 -0.5
v -2 13 2.5
v 0 13 2.5
v 1 13 2.5
v 3 13 2.5
v -1 13 1.5
v 0 13 1.5
v 1 13 1.5
v 2 13 1.5
v -1 13 -1.5
v 2 13 -1.5
v -2 13 -2.5
v 3 13 -2.5
v -3 14 0.5
v -2 14 0.5
v 3 14 0.5
v 4 14 0.5
v -3 14 -0.5
v -2 14 -0.5
v 3 14 -0.5
v 4 14 -0.5
v -2 1 1.5
v -1 1 1.5
v 2 1 1.5
v 3 1 1.5
v -2 1 0.5
v -1 1 0.5
v 2 1 0.5
v 3 1 0.5
v -9 11 0.5
v -3 11 0.5
v -2 11 0.5
v 3 11 0.5
v 4 11 0.5
v 10 11 0.5
v -9 11 -0.5
v -3 11 -0.5
v -2 11 -0.5
v 3 11 -0.5
v 4 11 -0.5
v 10 11 -0.5
v -2 12 1.5
v -1 12 1.5
v 2 12 1.5
v 3 12 1.5
v -2 12 -1.5
v -1 12 -1.5
v 2 12 -1.5
v 3 12 -1.5
v -3 16 0.5
v -2 16 0.5
v 3 16 0.5
v 4 16 0.5
v -3 16 -0.5
v -2 16 -0.5
v 3 16 -0.5
v 4 16 -0.5
v -2 19 2.5
v 3 19 2.5
v -2 19 -2.5
v 3 19 -2.5

# faces
f 3/1/1 2/1/1 1/1/1
f 4/1/1 2/1/1 3/1/1
f 7/1/1 6/1/1 5/1/1
f 8/1/1 6/1/1 7/1/1
f 11/2/1 10/2/1 9/2/1
f 12/2/1 10/2/1 11/2/1
f 13/2/1 10/2/1 12/2/1
f 14/2/1 10/2/1 13/2/1
f 16/3/1 14/3/1 13/3/1
f 17/3/1 14/3/1 16/3/1
f 19/3/1 17/3/1 16/3/1
f 19/3/1 18/3/1 17/3/1
f 19/3/1 16/3/1 15/3/1
f 20/3/1 18/3/1 19/3/1
f 21/4/1 20/4/1 19/4/1
f 22/4/1 20/4/1 21/4/1
f 23/4/1 21/4/1 19/4/1
f 24/4/1 20/4/1 22/4/1
f 25/4/1 23/4/1 19/4/1
f 25/4/1 24/4/1 23/4/1
f 26/4/1 20/4/1 24/4/1
f 26/4/1 24/4/1 25/4/1
f 29/1/1 28/1/1 27/1/1
f 30/1/1 28/1/1 29/1/1
f 31/1/1 28/1/1 30/1/1
f 32/1/1 28/1/1 31/1/1
f 33/1/1 28/1/1 32/1/1
f 34/1/1 28/1/1 33/1/1
f 35/6/1 30/6/1 29/6/1
f 36/1/1 31/1/1 30/1/1
f 36/6/1 30/6/1 35/6/1
f 37/1/1 31/1/1 36/1/1
f 38/1/1 33/1/1 32/1/1
f 39/5/1 34/5/1 33/5/1
f 39/1/1 33/1/1 38/1/1
f 40/1/1 36/1/1 35/1/1
f 41/5/1 38/5/1 37/5/1
f 41/1/1 36/1/1 40/1/1
f 41/5/1 37/5/1 36/5/1
f 41/5/1 39/5/1 38/5/1
f 42/5/1 41/5/1 40/5/1
f 43/5/1 34/5/1 39/5/1
f 43/5/1 41/5/1 42/5/1
f 43/5/1 39/5/1 41/5/1
f 46/1/1 45/1/1 44/1/1
f 47/1/1 45/1/1 46/1/1
f 50/3/1 49/3/1 48/3/1
f 51/3/1 49/3/1 50/3/1
f 54/2/1 53/2/1 52/2/1
f 55/2/1 53/2/1 54/2/1
f 56/2/1 53/2/1 55/2/1
f 57/2/1 53/2/1 56/2/1
f 58/3/1 57/3/1 56/3/1
f 59/3/1 57/3/1 58/3/1
f 60/2/2 61/2/2 62/2/2
f 62/2/2 61/2/2 63/2/2
f 63/2/2 61/2/2 64/2/2
f 64/2/2 61/2/2 65/2/2
f 64/3/2 65/3/2 66/3/2
f 66/3/2 65/3/2 67/3/2
f 68/3/2 69/3/2 70/3/2
f 70/3/2 69/3/2 71/3/2
f 72/1/2 73/1/2 74/1/2
f 74/1/2 73/1/2 75/1/2
f 76/2/2 77/2/2 78/2/2
f 78/2/2 77/2/2 79/2/2
f 79/2/2 77/2/2 80/2/2
f 80/2/2 77/2/2 81/2/2
f 80/3/2 81/3/2 83/3/2
f 83/3/2 81/3/2 84/3/2
f 83/3/2 84/3/2 86/3/2
f 84/3/2 85/3/2 86/3/2
f 82/3/2 83/3/2 86/3/2
f 86/3/2 85/3/2 87/3/2
f 86/4/2 87/4/2 88/4/2
f 88/4/2 87/4/2 89/4/2
f 86/4/2 88/4/2 90/4/2
f 89/4/2 87/4/2 91/4/2
f 86/4/2 90/4/2 92/4/2
f 90/4/2 91/4/2 92/4/2
f 91/4/2 87/4/2 93/4/2
f 92/4/2 91/4/2 93/4/2
f 94/1/2 95/1/2 96/1/2
f 96/1/2 95/1/2 97/1/2
f 97/1/2 95/1/2 98/1/2
f 98/1/2 95/1/2 99/1/2
f 99/1/2 95/1/2 100/1/2
f 96/6/2 97/6/2 101/6/2
f 97/1/2 98/1/2 102/1/2
f 101/6/2 97/6/2 102/6/2
f 102/1/2 98/1/2 103/1/2
f 99/5/2 100/5/2 104/5/2
f 101/1/2 102/1/2 105/1/2
f 102/5/2 103/5/2 106/5/2
f 105/1/2 102/1/2 106/1/2
f 103/5/2 104/5/2 106/5/2
f 105/5/2 106/5/2 107/5/2
f 104/5/2 100/5/2 108/5/2
f 107/5/2 106/5/2 108/5/2
f 106/5/2 104/5/2 108/5/2
f 109/1/2 110/1/2 111/1/2
f 111/1/2 110/1/2 112/1/2
f 113/1/2 114/1/2 115/1/2
f 115/1/2 114/1/2 116/1/2
f 122/1/3 118/1/3 117/1/3
f 122/6/3 119/6/3 118/6/3
f 123/1/3 120/1/3 119/1/3
f 123/6/3 119/6/3 122/6/3
f 124/1/3 122/1/3 117/1/3
f 125/5/3 123/5/3 122/5/3
f 125/1/3 122/1/3 124/1/3
f 126/1/3 120/1/3 123/1/3
f 126/5/3 123/5/3 125/5/3
f 127/7/3 125/7/3 124/7/3
f 128/1/3 126/1/3 125/1/3
f 128/7/3 125/7/3 127/7/3
f 129/1/3 120/1/3 126/1/3
f 129/1/3 126/1/3 128/1/3
f 130/1/3 128/1/3 127/1/3
f 130/5/3 129/5/3 128/5/3
f 131/1/3 120/1/3 129/1/3
f 131/5/3 129/5/3 130/5/3
f 132/1/3 130/1/3 127/1/3
f 133/6/3 131/6/3 130/6/3
f 133/1/3 130/1/3 132/1/3
f 134/1/3 120/1/3 131/1/3
f 134/6/3 131/6/3 133/6/3
f 135/5/3 121/5/3 120/5/3
f 135/1/3 120/1/3 134/1/3
f 136/5/3 121/5/3 135/5/3
f 142/2/3 138/2/3 137/2/3
f 143/2/3 138/2/3 142/2/3
f 144/4/3 141/4/3 140/4/3
f 146/3/3 140/3/3 139/3/3
f 147/3/3 140/3/3 146/3/3
f 148/1/3 145/1/3 144/1/3
f 150/3/3 140/3/3 147/3/3
f 151/1/3 148/1/3 144/1/3
f 154/4/3 144/4/3 140/4/3
f 154/1/3 151/1/3 144/1/3
f 155/1/3 151/1/3 154/1/3
f 156/2/3 153/2/3 152/2/3
f 157/2/3 153/2/3 156/2/3
f 158/3/3 150/3/3 149/3/3
f 159/3/3 140/3/3 150/3/3
f 159/3/3 150/3/3 158/3/3
f 159/4/3 154/4/3 140/4/3
f 160/4/3 154/4/3 159/4/3
f 163/1/3 162/1/3 161/1/3
f 164/1/3 162/1/3 163/1/3
f 170/4/3 164/4/3 163/4/3
f 171/4/3 164/4/3 170/4/3
f 172/1/3 166/1/3 165/1/3
f 173/1/3 166/1/3 172/1/3
f 174/2/3 168/2/3 167/2/3
f 175/3/3 169/3/3 168/3/3
f 175/2/3 168/2/3 174/2/3
f 176/3/3 169/3/3 175/3/3
f 180/2/3 178/2/3 177/2/3
f 181/3/3 179/3/3 178/3/3
f 181/2/3 178/2/3 180/2/3
f 182/3/3 179/3/3 181/3/3
f 187/4/3 184/4/3 183/4/3
f 188/4/3 184/4/3 187/4/3
f 189/1/3 186/1/3 185/1/3
f 190/1/3 186/1/3 189/1/3
f 191/1/3 188/1/3 187/1/3
f 192/1/3 188/1/3 191/1/3
f 193/1/4 194/1/4 195/1/4
f 195/1/4 194/1/4 196/1/4
f 195/4/4 196/4/4 202/4/4
f 202/4/4 196/4/4 203/4/4
f 197/1/4 198/1/4 204/1/4
f 204/1/4 198/1/4 205/1/4
f 199/2/4 200/2/4 206/2/4
f 200/3/4 201/3/4 207/3/4
f 206/2/4 200/2/4 207/2/4
f 207/3/4 201/3/4 208/3/4
f 209/2/4 210/2/4 212/2/4
f 210/3/4 211/3/4 213/3/4
f 212/2/4 210/2/4 213/2/4
f 213/3/4 211/3/4 214/3/4
f 215/4/4 216/4/4 219/4/4
f 219/4/4 216/4/4 220/4/4
f 217/1/4 218/1/4 221/1/4
f 221/1/4 218/1/4 222/1/4
f 219/1/4 220/1/4 223/1/4
f 223/1/4 220/1/4 224/1/4
f 226/4/4 227/4/4 228/4/4
f 225/3/4 226/3/4 230/3/4
f 230/3/4 226/3/4 231/3/4
f 231/3/4 226/3/4 233/3/4
f 228/1/4 229/1/4 234/1/4
f 226/4/4 228/4/4 234/4/4
f 234/1/4 229/1/4 235/1/4
f 232/3/4 233/3/4 236/3/4
f 233/3/4 226/3/4 237/3/4
f 236/3/4 233/3/4 237/3/4
f 226/4/4 234/4/4 237/4/4
f 237/4/4 234/4/4 238/4/4
f 239/1/4 240/1/4 242/1/4
f 240/5/4 241/5/4 243/5/4
f 242/1/4 240/1/4 243/1/4
f 243/5/4 241/5/4 244/5/4
f 249/2/5 246/2/5 245/2/5
f 250/2/5 246/2/5 249/2/5
f 251/2/5 248/2/5 247/2/5
f 252/2/5 248/2/5 251/2/5
f 257/3/5 254/3/5 253/3/5
f 258/3/5 254/3/5 257/3/5
f 259/3/5 256/3/5 255/3/5
f 260/3/5 256/3/5 259/3/5
f 262/3/5 254/3/5 258/3/5
f 263/3/5 259/3/5 255/3/5
f 265/3/5 262/3/5 261/3/5
f 266/3/5 254/3/5 262/3/5
f 266/3/5 262/3/5 265/3/5
f 267/3/5 264/3/5 263/3/5
f 267/3/5 263/3/5 255/3/5
f 268/3/5 264/3/5 267/3/5
f 271/3/5 270/3/5 269/3/5
f 272/3/5 270/3/5 271/3/5
f 279/1/5 274/1/5 273/1/5
f 280/4/5 275/4/5 274/4/5
f 280/1/5 274/1/5 279/1/5
f 281/4/5 275/4/5 280/4/5
f 282/4/5 277/4/5 276/4/5
f 283/1/5 278/1/5 277/1/5
f 283/4/5 277/4/5 282/4/5
f 284/1/5 278/1/5 283/1/5
f 289/1/5 286/1/5 285/1/5
f 290/7/5 287/7/5 286/7/5
f 290/1/5 286/1/5 289/1/5
f 291/1/5 288/1/5 287/1/5
f 291/7/5 287/7/5 290/7/5
f 292/1/5 288/1/5 291/1/5
f 293/1/5 289/1/5 285/1/5
f 294/1/5 288/1/5 292/1/5
f 295/1/5 293/1/5 285/1/5
f 295/1/5 294/1/5 293/1/5
f 296/1/5 288/1/5 294/1/5
f 296/1/5 294/1/5 295/1/5
f 301/1/5 298/1/5 297/1/5
f 302/1/5 298/1/5 301/1/5
f 303/1/5 300/1/5 299/1/5
f 304/1/5 300/1/5 303/1/5
f 305/2/6 306/2/6 309/2/6
f 309/2/6 306/2/6 310/2/6
f 307/2/6 308/2/6 311/2/6
f 311/2/6 308/2/6 312/2/6
f 313/1/6 314/1/6 319/1/6
f 314/4/6 315/4/6 320/4/6
f 319/1/6 314/1/6 320/1/6
f 320/4/6 315/4/6 321/4/6
f 316/4/6 317/4/6 322/4/6
f 317/1/6 318/1/6 323/1/6
f 322/4/6 317/4/6 323/4/6
f 323/1/6 318/1/6 324/1/6
f 325/4/6 326/4/6 329/4/6
f 329/4/6 326/4/6 330/4/6
f 327/4/6 328/4/6 331/4/6
f 331/4/6 328/4/6 332/4/6
f 333/1/6 334/1/6 337/1/6
f 337/1/6 334/1/6 338/1/6
f 335/1/6 336/1/6 339/1/6
f 339/1/6 336/1/6 340/1/6
f 341/5/6 342/5/6 343/5/6
f 343/5/6 342/5/6 344/5/6
